<svg xmlns="http://www.w3.org/2000/svg" viewBox="0 0 500 499.73">
    <title>27Asset 3</title>
    <g id="Layer_2" data-name="Layer 2">
        <g id="Layer_1-2" data-name="Layer 1">
            <g id="movie_reel" data-name="movie reel">
                <path style="fill:#ffffff" d="M483.3,466.72H374.2C449.3,423.5,500,342.6,500,250,500,112.2,387.9,0,250,0S0,112.2,0,250,112.2,500,250,499.72H483.3A16.26,16.26,0,0,0,500,483.3,16.55,16.55,0,0,0,483.3,466.72ZM334.2,430.9A61.7,61.7,0,1,1,396,369.2,61.8,61.8,0,0,1,334.2,430.9Zm52.4-287.2a61.75,61.75,0,1,1-61.7,61.8A61.82,61.82,0,0,1,386.6,143.7ZM247.8,43.7a61.7,61.7,0,1,1-61.7,61.7A61.82,61.82,0,0,1,247.8,43.7ZM49.7,205.5a61.7,61.7,0,1,1,61.7,61.7A61.82,61.82,0,0,1,49.7,205.5ZM161.4,428.6a61.7,61.7,0,1,1,61.7-61.7A61.8,61.8,0,0,1,161.4,428.6ZM216.7,250A33.3,33.3,0,1,1,250,283.3,33.29,33.29,0,0,1,216.7,250Z"/>
            </g>
        </g>
    </g>
</svg>