<!--___________________________________________
CODE ASSET OF SAMUEL ROBENS-PARADISE © 2018
DISTRIBUTION OF CODE WITHOUT WRITTEN CONSENT OF
SAMUEL ROBENS-PARADISE IS PROHIBITED UNLESS
ACCESSED THROUGH PUBLIC DOIMAIN SUCH AS GITHUB
OR ANY OTHER OPEN SOURCE PLATFORM ON WHICH ASSET
WAS PUBLISHED WITH AUTHOR CONSENT-->
<svg xmlns="http://www.w3.org/2000/svg" viewBox="0 0 342.31 309.78">
    <defs>
        <style>.cls-1{fill:#fff;stroke:#000;stroke-miterlimit:10;}</style>
    </defs>
    <title>21Asset 3</title>
    <g id="Layer_2" data-name="Layer 2">
        <g id="arrowHover">
            <g id="arrow">
                <path class="cls-1" d="M187.61,309.28a10,10,0,0,1-10-10l-.06-77-166.67-.19a10,10,0,0,1-10-10L.5,97.26a10,10,0,0,1,10-10l166.9.23-.16-76.93a10,10,0,0,1,6.17-9.25A9.89,9.89,0,0,1,187.24.5a10,10,0,0,1,7.07,2.93L338.89,148a10,10,0,0,1,0,14.14L194.68,306.35A10,10,0,0,1,187.61,309.28Z"/>
                <polygon class="cls-1" points="187.61 299.28 187.55 212.35 10.89 212.15 10.5 97.22 187.42 97.46 187.24 10.5 331.81 155.07 187.61 299.28"/>
            </g>
        </g>
    </g>
</svg>