<svg xmlns="http://www.w3.org/2000/svg" viewBox="0 0 500.05 394.75">
    <title>25Asset 1</title>
    <g id="Layer_2" data-name="Layer 2">
        <g id="Layer_1-2" data-name="Layer 1">
            <g id="Retro_phone.svg" data-name="Retro phone.svg">
                <path d="M33.84,394.62H190.19l156.09-.4c24.07-.1,50.05,2.62,22.05-23.87-8.76-8.26-16.31-18.84-22.86-32l62,.3,16,.1a67.38,67.38,0,0,0,15.19,21,54.84,54.84,0,0,0,23.59,13.2c9.6,2.3,21.1,1.9,29.1-4.3,8.29-6.4,11.69-18,5.39-27-6.39-9.2-17.59-11.3-28.09-11.5-13.19-.3-26.39-.3-39.58-.3-6.9-17.59-7.1-37.48-7.5-56.08-.5-23.89-1.1-47.68-1.7-71.58s-1.1-47.68-1.7-71.57c-.5-21.2-.7-43.39-10.9-62.68C393.93,42.62,363,28.72,335.15,34v-7.4h-4V21.19A4.12,4.12,0,0,0,328,17.11,4,4,0,0,0,323.15,21v4.6h-4v3h-24v-4.5a4.55,4.55,0,0,0-4.67-4.5h-4.67a4.59,4.59,0,0,0-4.66,4.5v4.5H241.09L193.89,1a8.34,8.34,0,0,0-7.8,0l-46.9,28.65h-39V24.37c.34-2.4-1.76-4.3-4.46-4.75h-4.8c-2.6.45-4.74,4.75-4.74,4.75v4.25h-17v-3h-4V20.39A4.12,4.12,0,0,0,62,16.31a4,4,0,0,0-4.85,3.91v5.4h-4v23H47.91c-3.18,0-5.76,2.9-5.76,6.4v21.3a58.26,58.26,0,0,1,18.5-2.8,61.33,61.33,0,0,1,18.5,2.8V54.66c0-3.3-2.43-6-5.43-6H69.15v-5h17v2.57a4.51,4.51,0,0,0,4.66,4.43h4.67a4.57,4.57,0,0,0,4.67-4.43V43.62h11.44a17.78,17.78,0,0,0-6.86,12.6,15.06,15.06,0,0,0,13,16.29c6.17.8,11.35-2.9,13.54-8.6a11.17,11.17,0,0,0-6.47-14.19c-5.48-2.1-11.45.1-13.54,5.7a9.38,9.38,0,0,0,0,6.8,9.35,9.35,0,0,1-1.1-3.8c-.6-6.7,4.18-11.7,10.35-13.1s11.65,1.8,14.44,7.3c3,5.9,2.59,13.49,1.39,19.89-1.59,9.2-4.28,18.4-2.39,27.69,1.6,7.7,7.17,14.9,14.94,16.6a15.52,15.52,0,0,0,13.44-3.3,12.74,12.74,0,0,0,4.18-9.9,16.5,16.5,0,0,0,6.47,5.2l-26.58,41.49a9.09,9.09,0,0,0,0,9l5.48,8.7c-4.09,1.89-6.77,4.79-6.77,8.09v1.4a6.59,6.59,0,0,0,.59,2.7c-24.09,4-43.6,11.7-50.47,23.1-20.51,33.79-38,73.57-54.16,118.86-7.67,21.6-17.33,37.39-29.37,48.89C-15.54,397.52,10.15,394.72,33.84,394.62Zm409.35-56c6,0,11.9.1,17.9.1,5.3,0,10.7-.2,16,.8,4.5.8,8.2,2.4,11.2,5.7a9.37,9.37,0,0,1,2.2,9.7c-2.6,8.7-13.4,10.7-21.6,9.9-7.6-.7-15.7-4.6-21.7-9.6a57.16,57.16,0,0,1-13.9-16.7C436.59,338.62,439.89,338.62,443.19,338.62Zm-108.31-296a3.4,3.4,0,0,0,1-.1,58,58,0,0,1,23.82.2,61.67,61.67,0,0,1,22.52,10,56.94,56.94,0,0,1,16.21,17.61c5.1,8.61,7.61,18.62,8.91,28.43,1.5,10.41,1.5,21,1.7,31.52.3,11.91.5,23.92.8,35.83.5,23.92,1.1,47.74,1.7,71.66.3,11.91.5,23.92.8,35.83a290.61,290.61,0,0,0,1.9,32.32,117.52,117.52,0,0,0,5.31,23.72H402.23l-60.75-.3c-1.1-2.6-2.1-5.2-3.1-8-16.31-44.83-33.73-84.26-54.44-117.69h4.91a4.3,4.3,0,0,0,4.3-4.3v-2.2c16.81-1.91,55.44-12,51.84-64.86a52.11,52.11,0,0,0,22.21-15.11c6.21-7.3,6.91-18.51,15-23.32,2.8-1.7,3.9-2.7,3.7-3.4.1-.7-.9-1.7-3.7-3.4-7.61-4.41-7.91-13.61-12.81-20.52C361.3,55,348.29,48.6,334.78,45.7l.1-3.11Zm-53.73,0v2.57a4.51,4.51,0,0,0,4.66,4.43h4.67a4.57,4.57,0,0,0,4.67-4.43V42.62h24v2.51c0,.1-11.95,3.6-13.56,4.2A47.94,47.94,0,0,0,281.5,71.18c-3.21,6.11-3.51,11.52-9.94,15.33-2.81,1.7-3.91,2.71-3.71,3.41-.1.7.9,1.7,3.71,3.4,8.23,4.91,9.44,16.44,15.76,23.85,8.84,10.32,21.39,15.84,34.64,18-1.31,11.92-7.93,21.84-28.81,14.63v-4.92a4.31,4.31,0,0,0-4.3-4.3h-6.4a4.3,4.3,0,0,0-4.3,4.3v51.21c-9.15-7.81-25.42-13.32-44.71-16.63a6.83,6.83,0,0,0,.71-2.81v-1.3c0-3.31-2.72-6.21-6.84-8.11l5.63-8.72a9,9,0,0,0,0-9L206.22,108a16,16,0,0,0,6.53-5.21,12.85,12.85,0,0,0,4.22,9.92A16.27,16.27,0,0,0,230.63,116c7.94-1.7,13.56-9,15.07-16.63,1.91-9.32-.81-18.54-2.41-27.76-1.11-6.31-1.61-13.93,1.4-19.94,2.82-5.41,8.34-8.72,14.57-7.32s11.05,6.42,10.45,13.13a10.43,10.43,0,0,1-1.11,3.81,9.87,9.87,0,0,0,0-6.82,10.36,10.36,0,0,0-13.66-5.71A11.17,11.17,0,0,0,248.41,63c2.11,5.71,7.43,9.42,13.56,8.62a15.19,15.19,0,0,0,13.16-16.33,17.62,17.62,0,0,0-6.93-12.63Zm-115.26,55c-3.8-6.5-14.2-7.4-18.6-.7-1.9,2.9,2.7,5.6,4.6,2.7,1.4-2.1,4.2-2.3,6.4-1.7,2.8.8,3.8,3.7,3.7,6.3-.3,7.3-9.1,9.1-14.5,6.2-7.4-4-8.8-13.1-8.2-20.7.7-8.4,3.5-16.6,3.7-25.1.1-7.1-1.5-14.6-6.6-19.8a8.06,8.06,0,0,0-1.4-1.2h7.2l44.1,25.9a8.29,8.29,0,0,0,7.8,0l44.1-25.9h7.2c-.5.4-.9.8-1.4,1.2-5.1,5.2-6.7,12.7-6.6,19.8.2,8.5,3,16.7,3.7,25.1.6,7.6-.9,16.7-8.2,20.7-5.3,2.9-14.2,1.1-14.5-6.2-.1-2.6.9-5.5,3.7-6.3,2.2-.7,5-.5,6.4,1.7,1.9,2.9,6.6.2,4.6-2.7-4.5-6.7-14.9-5.7-18.6.7-1.3-6.7-11.7-11.9-24.3-11.9h0C177.49,85.72,167.09,90.92,165.89,97.62Zm7.8,102.76a72.59,72.59,0,0,1,33,0A72.31,72.31,0,0,1,262,271c0,40-32.1,72.5-71.8,72.5s-71.8-32.4-71.8-72.5A72.4,72.4,0,0,1,173.69,200.38Zm-24.3,70.5a40.8,40.8,0,1,0,40.8-41.1A41,41,0,0,0,149.39,270.88Zm40.8-30.31a30.3,30.3,0,1,1-30,30.3A30.22,30.22,0,0,1,190.19,240.57Zm57,20.1a10.08,10.08,0,0,1,10,9.9v.2a10.13,10.13,0,0,1-7.36,9.86A10,10,0,0,1,237.15,271v-.31a10,10,0,0,1,10-10ZM248,304l-.2.4a9.75,9.75,0,0,1-8.5,5,9.47,9.47,0,0,1-4.9-1.3,9.71,9.71,0,0,1-3.6-13.39l.1-.21a9.87,9.87,0,0,1,13.4-3.79A9.64,9.64,0,0,1,248,304Zm-20.6,11.1a9.88,9.88,0,0,1-3.4,13.5l-.4.21a10.08,10.08,0,0,1-5,1.29,9.88,9.88,0,0,1-5-18.39l.3-.11A10,10,0,0,1,227.39,315.07Zm-17.6-98.6a9.93,9.93,0,0,1,13.5-3.6l.4.2a9.89,9.89,0,0,1-5,18.4,9.26,9.26,0,0,1-5-1.4l-.3-.1A10,10,0,0,1,209.79,216.47Zm20.8,30.71a9.88,9.88,0,0,1,17.1-9.9c.1.1.1.29.2.4a10,10,0,0,1-3.7,13.5,9.91,9.91,0,0,1-13.5-3.71Zm-77.5-20.5a9.88,9.88,0,0,1,3.4-13.5c.1-.11.3-.11.4-.21a9.88,9.88,0,0,1,9.9,17.1l-.2.11a10.31,10.31,0,0,1-5,1.39A10.2,10.2,0,0,1,153.09,226.68ZM180,213.62a9.44,9.44,0,0,1,.4-2.93,10,10,0,0,1,9.5-7.07h.4a10,10,0,0,1,9.6,7.27,12.86,12.86,0,0,1,.4,2.73,10,10,0,0,1-10,10h-.4A10.06,10.06,0,0,1,180,213.62Zm-47.6,24.26.2-.4a9.93,9.93,0,0,1,13.5-3.7,9.72,9.72,0,0,1,3.6,13.4l-.1.2a9.91,9.91,0,0,1-8.6,5,9.38,9.38,0,0,1-4.8-1.3A9.52,9.52,0,0,1,132.39,237.88Zm8.9,71.69a10.14,10.14,0,0,1-8.6-4.89l-.2-.4a9.83,9.83,0,1,1,17.1-9.7l.1.3a9.93,9.93,0,0,1-3.6,13.5A11.12,11.12,0,0,1,141.29,309.57Zm-8.14-27.95a10,10,0,0,1-10-9.8v-.29a10.11,10.11,0,0,1,7.42-9.88,10,10,0,0,1,12.58,9.57v.4a10,10,0,0,1-10,10Zm67.34,46a9.93,9.93,0,0,1-9.9,10h-.4a10,10,0,0,1-9.51-13.16,9.89,9.89,0,0,1,9.51-6.84h.2A10.18,10.18,0,0,1,200.49,327.62Zm-29.8-2.15a9.67,9.67,0,0,1-8.6,4.9,9.47,9.47,0,0,1-4.9-1.3l-.3-.2a9.86,9.86,0,0,1,10-17l.3.2A9.94,9.94,0,0,1,170.69,325.47ZM15.49,114.72c0-18.6,11.1-31.3,27.1-36.7a58.94,58.94,0,0,1,18.6-2.9A58.94,58.94,0,0,1,79.79,78c16,5.4,27.1,18.1,27.1,36.7,0,15.6-7.8,15.6-19.6,23.9H35.19C23.29,130.42,15.49,130.22,15.49,114.72Z"/>
            </g>
        </g>
    </g>
</svg>