<svg
 xmlns="http://www.w3.org/2000/svg"
 xmlns:xlink="http://www.w3.org/1999/xlink"
 width="18.972in" height="16.958in">
<path fill-rule="evenodd"  fill="rgb(0, 0, 0)"
 d="M511.000,-0.000 C519.770,7.024 524.942,14.663 526.000,23.000 C527.006,30.924 521.689,39.624 525.000,45.000 C531.499,55.553 562.206,47.303 567.000,46.000 C615.502,32.820 667.142,27.312 696.000,14.000 C698.882,12.670 722.019,5.724 742.000,6.000 C751.790,6.135 757.339,7.449 759.000,11.000 C762.696,18.900 745.870,35.130 718.000,57.000 C698.481,72.317 675.738,89.008 663.000,96.000 C647.205,104.670 614.068,132.797 599.000,147.000 C596.005,149.823 591.822,154.345 593.000,158.000 C594.198,161.715 600.670,163.591 613.000,164.000 C635.046,164.731 650.014,158.257 658.000,166.000 C660.524,168.448 661.945,171.877 662.000,175.000 C662.132,182.558 654.305,188.806 642.000,196.000 C631.364,202.218 621.383,206.699 611.000,213.000 C601.142,218.982 592.999,226.557 591.000,230.000 C583.811,242.382 587.434,254.674 588.000,275.000 C588.337,287.102 586.893,298.943 585.000,304.000 C580.690,315.513 571.247,327.900 551.000,340.000 C539.952,346.603 527.396,351.152 512.000,356.000 C493.873,361.708 481.960,369.787 464.000,376.000 C460.011,377.380 448.365,381.270 445.000,391.000 C443.577,395.114 443.778,402.430 449.000,412.000 C455.011,423.016 462.956,428.648 472.000,436.000 C479.043,441.726 485.635,448.120 487.000,451.000 C494.882,467.634 482.946,488.054 474.000,504.000 C462.892,523.799 457.251,540.887 445.000,560.000 C428.596,585.592 409.287,610.675 397.000,622.000 C361.683,654.552 319.393,669.048 299.000,675.000 C233.958,693.983 126.224,718.888 48.000,743.000 C31.876,747.970 16.142,753.218 -0.000,759.000 L-0.000,1207.000 C60.480,1219.521 122.253,1223.843 185.000,1219.000 C242.781,1214.540 292.958,1200.703 346.000,1194.000 C382.840,1189.344 439.584,1187.346 492.000,1187.000 C553.999,1186.590 615.379,1190.017 681.000,1194.000 C750.330,1198.209 813.116,1195.670 879.000,1203.000 C959.800,1211.989 1012.156,1223.588 1093.000,1215.000 C1171.749,1206.634 1243.937,1184.348 1307.000,1151.000 C1327.442,1140.191 1347.116,1128.182 1366.000,1115.000 L1366.000,2.000 L511.000,-0.000 Z"/>
</svg>
