<svg xmlns="http://www.w3.org/2000/svg" viewBox="0 0 1920.35 1080">
    <title>20Asset 3</title>
    <g id="Layer_2" data-name="Layer 2">
        <g id="Layer_2-2" data-name="Layer 2">
            <path d="M1117.35,0l2,4.38,12,26.62c8.07,17.91,3.36,45,19.93,56.84,10.13,7.26,23.82,9.91,36.09,10.16,20.71-2.52,41.36-5.82,61.86-9.66,32.83-6.15,69.68-11.12,94.47-34.84,9.77-9.34,20.76-19.23,34.25-19.92,14-.71,27.71,8.8,39.53,15.25,12.1,6.61,20.73,15.86,9.71,29.38-5.2,6.39-13,10-20.72,13-60.74,23.34-130.82,32.94-167,93.53-2.93,4.91-5.53,11.33-2.27,16,3.56,5.12,11.21,4.34,17.3,3,17.15-3.82,34.18-8.58,51.67-10.64,9.91-1.17,34.79-5.17,42.88,2.32a13.89,13.89,0,0,1,2.67,16.35c-3.12,5.72-9.83,8.39-16.15,10-30.14,7.63-64.42,1.45-90.72,18-24.82,15.65-29.87,41.56-24.43,67.85,5.26,25.35-4.5,53.77-25.26,69.54-18.28,13.89-42.33,17.74-65.29,17.74-11.43,0-22.92-.83-34.23.73s-22.73,5.81-30.36,14.31c-8.47,9.44-11.16,22.8-11.06,35.47.13,16.27,4.79,33.26,16.48,44.58,10,9.68,24.32,14.55,32.64,25.7,6.55,8.78,8.37,20.38,7.23,31.27-1.62,15.43-7.18,29.72-15.07,43-7.41,12.43-17.83,18.34-29.91,26.18q-38.83,25.22-79.75,47a1098.24,1098.24,0,0,1-170,72.92,1091.79,1091.79,0,0,1-344,56.06c-79.82,0-159.48-8.84-239.29-7.83-62,.78-124.88,7.73-183.54,28.83-13.82,5-31,10-43,18.61C-.22,836.13.81,835.92.35,842.66c-.78,11.22,0,22.79,0,34v192.73c0,3.52,1920,10.57,1920,10.57V0"/>
        </g>
    </g>
</svg>