<svg xmlns="http://www.w3.org/2000/svg" viewBox="0 0 429 500">
    <title>26Asset 2</title>
    <g id="Layer_2" data-name="Layer 2">
        <g id="Layer_1-2" data-name="Layer 1">
            <g id="mail">
                <g id="_805-mailbox-selected_2x.png" data-name="805-mailbox-selected@2x.png">
                    <path d="M393.41,143H197V260.7A26.63,26.63,0,0,1,214.77,290a27.12,27.12,0,0,1-53.87-4.19A26.64,26.64,0,0,1,179,260.7V143H72V429H393.3A35.7,35.7,0,0,0,429,393.3V178.74A35.53,35.53,0,0,0,393.41,143ZM215,500h71V446H215ZM0,178.74V393.3A35.7,35.7,0,0,0,35.7,429H54V143H36A35.81,35.81,0,0,0,0,178.74ZM196.9,107H312.34a9.14,9.14,0,0,0,8.68-5.94,8.34,8.34,0,0,0-1.58-8.43l.1-.1-31.24-39,31.24-39-.1-.1c2.08-2.6,3.26-6.42.37-10.4a10,10,0,0,0-8.1-4H187.9A8.93,8.93,0,0,0,179,8.9V143h18V107Z"/>
                </g>
            </g>
        </g>
    </g>
</svg>